<svg width="110" height="21" viewBox="0 0 110 21" fill="none" xmlns="http://www.w3.org/2000/svg">
<g clip-path="url(#clip0_391_1617)">
<path d="M75.295 10.473C75.295 11.2143 75.4256 11.9047 75.6942 12.5516C75.9627 13.1984 76.3327 13.7579 76.8042 14.2377C77.2687 14.7175 77.8272 15.0952 78.4729 15.3714C79.1114 15.6476 79.8006 15.7856 80.5406 15.7856C81.288 15.7856 81.9628 15.6476 82.5575 15.3641C83.1452 15.0805 83.6532 14.6954 84.0594 14.2086C84.4729 13.7215 84.7921 13.1546 85.0171 12.5007C85.2421 11.8465 85.3509 11.1488 85.3509 10.4075V2.35454C85.3509 2.02009 85.4162 1.70768 85.5468 1.42412C85.6774 1.14056 85.8589 0.893465 86.0836 0.682835C86.3083 0.472205 86.5698 0.304844 86.8598 0.181296C87.1501 0.0577479 87.4548 -0.000488281 87.7811 -0.000488281C88.1149 -0.000488281 88.4196 0.0577479 88.6952 0.181296C88.9708 0.304844 89.2176 0.471932 89.4279 0.682835C89.6382 0.893465 89.8053 1.14083 89.9212 1.42412C90.0371 1.70768 90.0953 2.02009 90.0953 2.35454V10.3566C90.0953 11.7521 89.8632 13.0676 89.3915 14.303C88.92 15.5385 88.2596 16.6142 87.4181 17.5373C86.5766 18.4604 85.568 19.1943 84.3927 19.7323C83.2173 20.2701 81.9331 20.5392 80.5401 20.5392C79.1471 20.5392 77.8485 20.2703 76.6369 19.7397C75.4254 19.209 74.3659 18.4895 73.4664 17.5738C72.5667 16.6581 71.8558 15.5897 71.3334 14.3686C70.811 13.1476 70.5498 11.8468 70.5498 10.4657V2.35454C70.5498 2.02009 70.6151 1.70768 70.7386 1.42412C70.8619 1.14056 71.0289 0.893465 71.2392 0.682835C71.4498 0.472205 71.7037 0.304844 71.9937 0.181296C72.284 0.0577479 72.5887 -0.000488281 72.9152 -0.000488281C73.2344 -0.000488281 73.5394 0.0577479 73.8294 0.181296C74.1197 0.304844 74.3735 0.471932 74.5983 0.682835C74.8159 0.893465 74.9827 1.14083 75.1062 1.42412C75.2295 1.70768 75.2948 2.02009 75.2948 2.35454V10.4728L75.295 10.473Z" fill="#243047"/>
<path fill-rule="evenodd" clip-rule="evenodd" d="M67.8609 15.7759C69.1758 15.7759 70.2415 16.8421 70.2415 18.1576C70.2415 19.4731 69.1758 20.5393 67.8609 20.5393C66.5462 20.5393 65.4802 19.4731 65.4802 18.1576C65.4802 16.8421 66.5459 15.7759 67.8609 15.7759Z" fill="#5D78FF"/>
<path d="M95.7014 0H106.396C106.788 0.00462624 107.094 0.0666723 107.452 0.216617C108.32 0.602772 108.848 1.38869 108.848 2.26468C108.847 2.71261 108.702 3.15074 108.427 3.52111L96.5944 19.5527C95.8366 20.5791 94.3035 20.8491 93.1874 20.1519C92.0714 19.455 91.7781 18.0448 92.5358 17.0183L101.524 4.84068H95.8263C94.3514 4.84068 93.1445 3.75515 93.1445 2.42878C93.1445 1.90737 93.3308 1.42352 93.6464 1.02811C94.0853 0.410375 94.8436 0.000272132 95.7011 0.000272132L95.7014 0ZM102.264 15.7088H107.547C108.896 15.7088 109.999 16.7941 109.999 18.1207C109.999 19.4474 108.896 20.5326 107.547 20.5326H102.264C100.915 20.5326 99.8108 19.4471 99.8108 18.1207C99.8108 16.7941 100.915 15.7088 102.264 15.7088Z" fill="#243047"/>
<path d="M63.0266 18.2115C63.0266 18.5452 62.9613 18.8497 62.8383 19.1327C62.7153 19.4155 62.5559 19.662 62.3532 19.8724C62.1431 20.0827 61.9042 20.2495 61.6218 20.3655C61.3321 20.4814 61.0353 20.5396 60.7167 20.5396C60.3907 20.5396 60.0865 20.4817 59.7823 20.3655C59.4855 20.2495 59.2319 20.0898 59.0075 19.8794C58.7901 19.6691 58.6165 19.4225 58.4862 19.1398C58.3559 18.857 58.2906 18.5452 58.2906 18.2115V10.1322C58.2906 10.0163 58.2922 9.89928 58.2897 9.83724C58.2609 9.12643 58.1602 8.49318 57.8993 7.86945C57.6387 7.25307 57.2839 6.70908 56.8347 6.24482C56.3858 5.78057 55.8642 5.41074 55.2632 5.14242C54.6622 4.8741 53.9959 4.74347 53.2716 4.74347C52.5329 4.74347 51.8522 4.8741 51.2294 5.14242C50.6067 5.41074 50.078 5.78791 49.6362 6.26659C49.1943 6.74527 48.8469 7.30369 48.5933 7.94918C48.3397 8.59468 48.2094 9.28372 48.2094 10.0234V18.2115C48.2094 18.5452 48.1515 18.857 48.0356 19.1398C47.9197 19.4225 47.7531 19.6691 47.5431 19.8794C47.3331 20.0898 47.0868 20.2493 46.8118 20.3655C46.5367 20.4814 46.2325 20.5396 45.8992 20.5396C45.5733 20.5396 45.2691 20.4817 44.9796 20.3655C44.6899 20.2495 44.4292 20.0827 44.2048 19.8724C43.9803 19.662 43.7994 19.4155 43.6688 19.1327C43.5384 18.85 43.4731 18.5452 43.4731 18.2115V10.009C43.4731 8.61645 43.7267 7.31104 44.2262 6.09978C44.726 4.88852 45.4138 3.82965 46.2902 2.92318C47.1665 2.01671 48.2021 1.3059 49.397 0.783684C50.599 0.261463 51.881 0.000488281 53.2643 0.000488281C54.6548 0.000488281 55.9439 0.261463 57.1315 0.783684C58.3191 1.3059 59.3476 2.01671 60.2239 2.92318C61.0929 3.82993 61.7737 4.88852 62.2735 6.09978C62.7733 7.31104 63.0266 8.61645 63.0266 10.009V18.2115Z" fill="#243047"/>
<path d="M3.61503 0H14.3946C14.7896 0.00462624 15.0979 0.0666723 15.459 0.216617C16.3345 0.6025 16.8667 1.38787 16.8667 2.26332C16.8653 2.7107 16.7189 3.14884 16.4422 3.51894L4.51559 19.5396C3.75188 20.5655 2.2065 20.835 1.08147 20.1386C-0.0435514 19.4422 -0.339024 18.0328 0.424688 17.0071L9.47523 4.84993H3.69502C2.20296 4.84993 0.982167 3.76113 0.982167 2.43068C0.982167 1.63333 1.42048 0.923071 2.09305 0.481673C2.5134 0.180423 3.04231 0.000544264 3.6153 0.000544264L3.61503 0ZM10.1581 15.6628H15.5022C16.8667 15.6628 17.9833 16.76 17.9833 18.1011C17.9833 19.4422 16.8669 20.5394 15.5022 20.5394H10.1581C8.79368 20.5394 7.67709 19.4422 7.67709 18.1011C7.67709 16.76 8.79341 15.6628 10.1581 15.6628Z" fill="#243047"/>
<path fill-rule="evenodd" clip-rule="evenodd" d="M29.7217 0.00323303C29.9622 -0.0073801 31.476 -0.003026 32.194 0.196174C33.2437 0.403267 34.0564 1.31382 34.1053 2.44045C34.1627 3.76028 33.1501 4.8763 31.8433 4.93317C31.7459 4.93753 31.6496 4.93562 31.5546 4.92827C31.5552 4.94379 30.1287 4.79302 29.9306 4.80173C26.9158 4.93317 24.5781 7.48658 24.7095 10.5045C24.8409 13.5225 27.3916 15.8625 30.4065 15.7311C33.4213 15.5996 35.759 13.0462 35.6276 10.0283C35.6183 9.81848 35.4124 8.56994 34.9831 7.6632C34.8427 7.32984 34.7012 6.97117 34.677 6.59535C34.5575 4.75465 36.0052 3.98806 36.9491 3.9769C37.8929 3.96574 38.5682 4.4447 39.0228 5.06951C40.3013 7.09145 40.409 9.58962 40.4215 9.8193C40.7301 15.5471 36.2781 20.2825 30.6157 20.5296C24.9533 20.7764 20.1632 16.3818 19.9164 10.7138C19.6696 5.04556 24.0598 0.250601 29.7222 0.00350517L29.7217 0.00323303Z" fill="#243047"/>
</g>
<defs>
<clipPath id="clip0_391_1617">
<rect width="110" height="20.5394" fill="white"/>
</clipPath>
</defs>
</svg>
